<?xml version="1.0" standalone="no"?>
<!DOCTYPE svg PUBLIC "-//W3C//DTD SVG 20010904//EN"
 "http://www.w3.org/TR/2001/REC-SVG-20010904/DTD/svg10.dtd">
<svg version="1.0" xmlns="http://www.w3.org/2000/svg"
 width="96.000000pt" height="96.000000pt" viewBox="0 0 96.000000 96.000000"
 preserveAspectRatio="xMidYMid meet">
<metadata>
Created by potrace 1.11, written by Peter Selinger 2001-2013
</metadata>
<g transform="translate(0.000000,96.000000) scale(0.100000,-0.100000)"
fill="#000000" stroke="none">
<path d="M188 470 c94 -283 109 -320 128 -320 17 0 33 28 92 153 39 83 75 151
79 150 4 0 39 -69 78 -152 100 -216 89 -224 216 156 56 170 104 314 107 321 3
9 -18 12 -85 12 l-90 0 -43 -145 c-24 -80 -47 -142 -50 -138 -4 5 -33 67 -65
138 -32 72 -61 134 -65 138 -4 4 -35 -55 -70 -133 -35 -77 -66 -140 -70 -140
-4 0 -12 19 -19 43 -7 23 -26 86 -42 140 l-30 97 -89 0 -88 0 106 -320z"/>
</g>
</svg>
